<?xml version="1.0" standalone="no"?>
<!DOCTYPE svg PUBLIC "-//W3C//DTD SVG 20010904//EN"
 "http://www.w3.org/TR/2001/REC-SVG-20010904/DTD/svg10.dtd">
<svg version="1.0" xmlns="http://www.w3.org/2000/svg"
 width="650.000000pt" height="650.000000pt" viewBox="0 0 650.000000 650.000000"
 preserveAspectRatio="xMidYMid meet">

<g transform="translate(0.000000,650.000000) scale(0.100000,-0.100000)"
fill="#000000" stroke="none">
<path d="M3170 5430 c-189 -19 -402 -66 -562 -124 -106 -38 -269 -109 -313
-136 -16 -9 -84 -45 -150 -80 -242 -125 -434 -268 -625 -466 -190 -197 -330
-393 -436 -609 -114 -234 -140 -370 -131 -708 6 -271 37 -463 113 -702 100
-312 336 -752 551 -1024 32 -41 93 -118 136 -172 42 -54 77 -101 77 -104 0 -9
18 -30 93 -110 86 -92 190 -148 317 -171 47 -9 130 -34 185 -56 194 -77 538
-184 725 -224 79 -17 346 -19 479 -4 168 19 481 90 661 150 210 71 428 174
601 286 54 35 216 154 245 180 12 11 36 33 55 49 159 143 270 329 375 630 139
397 182 877 110 1230 -8 39 -27 149 -42 245 -14 96 -28 182 -29 191 -11 58
-71 242 -110 334 -187 447 -548 857 -962 1095 -94 54 -123 59 -177 34 -49 -24
-80 -12 -150 58 -76 76 -131 102 -192 93 -24 -3 -44 -11 -44 -17 0 -16 61 -69
121 -105 58 -34 137 -68 314 -133 61 -22 111 -45 113 -50 2 -5 9 -7 17 -4 17
7 82 -22 168 -74 37 -23 73 -42 80 -42 6 0 30 -17 53 -38 22 -20 58 -53 80
-73 111 -100 252 -270 347 -419 27 -41 82 -142 122 -225 117 -238 186 -467
221 -729 19 -147 18 -391 -2 -497 -17 -94 -59 -253 -81 -314 -87 -232 -176
-402 -295 -561 -461 -617 -685 -837 -1033 -1012 -133 -67 -157 -76 -283 -111
-227 -62 -333 -74 -692 -73 -319 0 -327 0 -423 26 -131 35 -238 77 -448 176
-96 46 -203 95 -239 109 -51 21 -69 34 -85 62 -11 20 -34 53 -52 74 -57 67
-217 238 -252 269 -78 71 -207 250 -293 407 -51 91 -123 269 -147 364 -101
396 -90 778 34 1204 19 64 52 188 75 276 94 367 192 580 378 827 299 398 794
675 1342 752 138 20 288 24 510 14 171 -8 189 1 43 22 -104 15 -387 21 -493
10z m-1376 -652 c-274 -282 -456 -591 -568 -961 -142 -468 -153 -897 -35
-1351 15 -61 26 -112 24 -114 -7 -7 -73 212 -93 308 -39 185 -47 271 -47 500
1 283 25 450 97 670 107 328 282 621 524 879 69 74 200 191 212 191 3 0 -49
-55 -114 -122z m3866 -1993 c-46 -411 -248 -889 -500 -1185 -231 -272 -542
-500 -866 -636 -101 -42 -243 -88 -251 -81 -2 2 41 21 95 42 473 184 839 484
1139 932 191 286 321 637 370 996 15 107 19 123 21 82 2 -27 -2 -95 -8 -150z"/>
<path d="M4223 5430 c-119 -10 -102 -44 28 -55 127 -10 139 -14 188 -59 54
-51 111 -70 111 -37 0 50 -108 131 -196 147 -58 10 -64 10 -131 4z"/>
<path d="M2020 1368 c1 -34 30 -52 86 -52 47 -1 58 -5 74 -26 11 -14 22 -37
25 -51 14 -60 121 -136 112 -79 -4 24 -57 91 -110 139 -61 55 -188 101 -187
69z"/>
</g>
</svg>
